<?xml version="1.0" standalone="no"?>
<!DOCTYPE svg PUBLIC "-//W3C//DTD SVG 20010904//EN"
 "http://www.w3.org/TR/2001/REC-SVG-20010904/DTD/svg10.dtd">
<svg version="1.0" xmlns="http://www.w3.org/2000/svg"
 width="260.000000pt" height="260.000000pt" viewBox="0 0 260.000000 260.000000"
 preserveAspectRatio="xMidYMid meet">
<metadata>
Created by potrace 1.11, written by Peter Selinger 2001-2013
</metadata>
<g transform="translate(0.000000,260.000000) scale(0.100000,-0.100000)"
fill="#000000" stroke="none">
<path d="M1204 2409 c-49 -15 -204 -63 -344 -107 -608 -192 -851 -270 -857
-276 -3 -3 -1 -11 4 -18 6 -7 43 -76 83 -153 40 -77 89 -169 108 -205 29 -53
250 -367 412 -585 29 -38 372 -510 513 -705 108 -149 160 -215 168 -215 5 0
77 92 159 205 82 113 156 214 164 225 8 11 74 101 146 200 72 99 167 230 211
290 203 279 241 332 259 355 105 141 122 168 230 375 35 66 76 144 92 173 15
29 28 54 28 56 0 6 -48 22 -215 75 -88 27 -261 82 -385 121 -124 40 -266 84
-315 99 l-90 28 -70 -30 c-39 -16 -80 -32 -91 -37 -21 -8 -21 -6 -19 58 l3 67
-53 16 c-51 15 -55 15 -141 -12z m-284 -851 c14 -13 68 -59 120 -103 52 -44
102 -87 111 -95 8 -8 29 -26 45 -40 16 -13 58 -50 94 -80 36 -31 70 -59 77
-63 6 -4 27 7 46 25 199 186 278 260 312 291 37 32 43 45 64 131 26 104 22
101 93 61 l37 -21 -35 -40 c-19 -21 -54 -59 -77 -84 -57 -61 -252 -274 -302
-329 -22 -24 -67 -73 -100 -108 l-60 -65 -77 73 c-373 361 -577 563 -573 568
3 3 41 24 83 47 l77 41 20 -93 c15 -72 26 -99 45 -116z"/>
</g>
</svg>
